<svg width="1416" height="172" viewBox="0 0 1416 172" fill="none" xmlns="http://www.w3.org/2000/svg">
<path d="M1215.55 168.979C1216.6 170.072 1215.82 171.884 1214.31 171.884H1176.62C1176.14 171.884 1175.69 171.689 1175.37 171.346L1125.26 118.347L1074.61 171.353C1074.29 171.692 1073.84 171.884 1073.37 171.884H1035.67C1034.16 171.884 1033.39 170.072 1034.43 168.979L1103.49 96.6039L1036.77 26.2769C1035.73 25.1818 1036.51 23.375 1038.02 23.375H1075.72C1076.2 23.375 1076.65 23.5708 1076.97 23.9161L1124.9 74.8609L1173.01 23.9138C1173.33 23.5699 1173.78 23.375 1174.26 23.375H1211.97C1213.48 23.375 1214.25 25.1818 1213.21 26.2769L1146.49 96.6039L1215.55 168.979Z" fill="white"/>
<path d="M858.19 171.882C856.873 171.882 855.804 170.814 855.804 169.496V25.7664C855.804 24.4487 856.873 23.3805 858.19 23.3805H1000.6C1001.92 23.3805 1002.99 24.4487 1002.99 25.7664V46.3204C1002.99 47.6381 1001.92 48.7063 1000.6 48.7063H890.34V81.8025H956.448C957.766 81.8025 958.834 82.8707 958.834 84.1884V104.742C958.834 106.06 957.766 107.128 956.448 107.128H890.34V143.966H1002.04C1003.36 143.966 1004.43 145.034 1004.43 146.352V169.496C1004.43 170.814 1003.36 171.882 1002.04 171.882H858.19Z" fill="white"/>
<path d="M606.018 171.882C604.701 171.882 603.632 170.814 603.632 169.496V25.7664C603.632 24.4487 604.701 23.3805 606.018 23.3805H635.782C637.099 23.3805 638.167 24.4487 638.167 25.7664V169.496C638.167 170.814 637.099 171.882 635.782 171.882H606.018Z" fill="white"/>
<path d="M436.703 171.882C435.385 171.882 434.317 170.814 434.317 169.496V25.7664C434.317 24.4487 435.385 23.3805 436.703 23.3805H577.387C578.705 23.3805 579.773 24.4487 579.773 25.7664V46.896C579.773 48.2137 578.705 49.2819 577.387 49.2819H468.852V88.4218H528.917C530.235 88.4218 531.303 89.49 531.303 90.8077V113.088C531.303 114.406 530.235 115.474 528.917 115.474H468.852V169.496C468.852 170.814 467.784 171.882 466.466 171.882H436.703Z" fill="white"/>
<path d="M344.349 49.8575V169.496C344.349 170.814 343.281 171.882 341.963 171.882H312.2C310.882 171.882 309.814 170.814 309.814 169.496V49.8575H246.379C245.061 49.8575 243.993 48.7893 243.993 47.4716V25.7664C243.993 24.4487 245.061 23.3805 246.379 23.3805H408.072C409.39 23.3805 410.458 24.4487 410.458 25.7664V47.4716C410.458 48.7893 409.39 49.8575 408.072 49.8575H344.349Z" fill="white"/>
<path d="M187.984 171.882C186.667 171.882 185.598 170.814 185.598 169.496V25.7664C185.598 24.4487 186.667 23.3805 187.984 23.3805H217.748C219.065 23.3805 220.134 24.4487 220.134 25.7664V169.496C220.134 170.814 219.065 171.882 217.748 171.882H187.984Z" fill="white"/>
<path fill-rule="evenodd" clip-rule="evenodd" d="M0 25.7664C0 24.4487 1.06821 23.3805 2.38592 23.3805H129.563C146.693 23.3805 160.58 37.2673 160.58 54.3975V64.3105C160.58 81.4407 146.693 95.3275 129.563 95.3275H130.722C147.852 95.3275 161.739 109.214 161.739 126.345V140.867C161.739 157.997 147.852 171.884 130.722 171.884H2.38592C1.06822 171.884 0 170.816 0 169.498V25.7664ZM33.9383 47.5605H114.321C122.227 47.5605 128.637 53.9698 128.637 61.876V68.6389C128.637 76.5452 122.227 82.9544 114.321 82.9544H33.9383V47.5605ZM33.9383 107.404H115.184C123.09 107.404 129.499 113.813 129.499 121.72V130.801C129.499 138.707 123.09 145.116 115.184 145.116H33.9383V107.404Z" fill="white"/>
<path d="M662.027 169.496V25.7664C662.027 24.4487 663.095 23.3805 664.413 23.3805H684.722C685.304 23.3805 685.867 23.5937 686.303 23.9798L800.863 125.379L800.864 25.7664C800.864 24.4487 801.932 23.3805 803.25 23.3805H829.559C830.877 23.3805 831.945 24.4487 831.945 25.7664V169.496C831.945 170.814 830.877 171.882 829.559 171.882H809.252C808.669 171.882 808.105 171.668 807.669 171.28L693.108 69.617L693.108 169.496C693.108 170.814 692.04 171.882 690.722 171.882H664.413C663.095 171.882 662.027 170.814 662.027 169.496Z" fill="white"/>
<path d="M1244.26 112.085C1242.76 87.75 1252.98 60.7001 1274.03 39.6485C1319.8 -6.12601 1415.13 0.290086 1415.67 0.326955C1415.41 0.704717 1345.72 101.745 1263.14 111.195C1256.76 111.925 1250.45 112.212 1244.26 112.085Z" fill="#03CA9B"/>
<path d="M1253.93 143.199C1256.29 146.958 1259.08 150.479 1262.3 153.703C1290.56 181.959 1341.62 176.708 1376.35 141.973C1422.26 96.0684 1415.67 0.326955 1415.67 0.326955C1415.42 0.894263 1365.47 112.871 1286.07 137.296C1275.3 140.612 1264.49 142.543 1253.93 143.199Z" fill="#03CA9B"/>
</svg>
